<svg width="136.000000" height="16.000000" viewBox="0 0 136 16" fill="none" xmlns="http://www.w3.org/2000/svg" xmlns:xlink="http://www.w3.org/1999/xlink">
	<desc>
			Created with Pixso.
	</desc>
	<defs/>
	<path id="Vector" d="M135.39 7.18L131.78 7.18C131.76 6.96 131.68 6.77 131.55 6.61C131.41 6.45 131.23 6.32 131.01 6.24C130.8 6.15 130.56 6.1 130.3 6.1C129.97 6.1 129.68 6.16 129.44 6.29C129.19 6.41 129.08 6.59 129.08 6.81C129.08 6.97 129.14 7.12 129.29 7.26C129.43 7.4 129.72 7.5 130.13 7.58L132.35 7.98C133.47 8.18 134.3 8.52 134.84 9.01C135.39 9.49 135.67 10.13 135.67 10.93C135.67 11.71 135.44 12.38 134.98 12.96C134.52 13.52 133.9 13.97 133.11 14.28C132.32 14.59 131.42 14.74 130.42 14.74C128.75 14.74 127.45 14.4 126.5 13.72C125.57 13.03 125.04 12.14 124.93 11.02L128.83 11.02C128.88 11.36 129.05 11.63 129.34 11.82C129.63 12 130 12.1 130.44 12.1C130.8 12.1 131.1 12.04 131.33 11.91C131.57 11.79 131.69 11.61 131.69 11.39C131.69 11.18 131.59 11.01 131.38 10.89C131.18 10.77 130.87 10.67 130.44 10.59L128.51 10.25C127.4 10.06 126.57 9.69 126.01 9.14C125.46 8.6 125.18 7.9 125.19 7.04C125.18 6.28 125.38 5.64 125.79 5.12C126.19 4.59 126.77 4.18 127.53 3.91C128.28 3.63 129.18 3.49 130.22 3.49C131.79 3.49 133.04 3.82 133.95 4.47C134.86 5.12 135.34 6.03 135.39 7.18Z" fill="#475467" fill-opacity="1.000000" fill-rule="evenodd"/>
	<path id="Vector" d="M116.41 11.96L116.44 7.3L116.95 7.3L119.59 3.63L124 3.63L119.56 9.34L118.46 9.34L116.41 11.96ZM112.89 14.54L112.89 0L116.81 0L116.81 14.54L112.89 14.54ZM119.62 14.54L117.12 10.22L119.68 7.44L124.11 14.54L119.62 14.54Z" fill="#475467" fill-opacity="1.000000" fill-rule="evenodd"/>
	<path id="Vector" d="M105.61 14.74C104.43 14.74 103.42 14.5 102.57 14.04C101.73 13.56 101.09 12.9 100.64 12.06C100.19 11.21 99.96 10.23 99.96 9.11C99.96 8 100.19 7.02 100.64 6.17C101.09 5.33 101.73 4.67 102.57 4.2C103.42 3.73 104.43 3.49 105.61 3.49C106.68 3.49 107.61 3.68 108.39 4.07C109.18 4.46 109.79 5 110.22 5.71C110.65 6.41 110.87 7.23 110.87 8.18L107.23 8.18C107.18 7.6 107.02 7.17 106.74 6.87C106.46 6.57 106.11 6.42 105.67 6.42C105.33 6.42 105.03 6.51 104.78 6.71C104.52 6.91 104.32 7.2 104.18 7.6C104.04 7.99 103.97 8.49 103.97 9.09C103.97 9.68 104.04 10.18 104.18 10.58C104.32 10.97 104.52 11.27 104.78 11.47C105.03 11.66 105.33 11.76 105.67 11.76C105.96 11.76 106.22 11.69 106.44 11.56C106.66 11.42 106.84 11.22 106.98 10.96C107.12 10.7 107.21 10.37 107.23 10L110.87 10C110.86 10.96 110.64 11.79 110.21 12.51C109.78 13.22 109.18 13.77 108.4 14.16C107.62 14.55 106.69 14.74 105.61 14.74Z" fill="#475467" fill-opacity="1.000000" fill-rule="evenodd"/>
	<path id="Vector" d="M94.04 9.77L94.04 3.63L97.96 3.63L97.96 14.54L94.24 14.54L94.24 12.47L94.13 12.47C93.89 13.16 93.48 13.71 92.89 14.1C92.29 14.49 91.59 14.68 90.78 14.68C90.01 14.68 89.35 14.51 88.77 14.16C88.21 13.81 87.76 13.32 87.45 12.71C87.13 12.09 86.97 11.39 86.97 10.59L86.97 3.63L90.89 3.63L90.89 9.77C90.9 10.31 91.03 10.73 91.3 11.04C91.58 11.35 91.96 11.5 92.45 11.5C92.78 11.5 93.06 11.43 93.3 11.29C93.54 11.15 93.72 10.95 93.85 10.7C93.98 10.44 94.05 10.13 94.04 9.77Z" fill="#475467" fill-opacity="1.000000" fill-rule="evenodd"/>
	<path id="Vector" d="M77.9 14.54L77.9 3.63L81.7 3.63L81.7 5.71L81.82 5.71C82.02 4.94 82.33 4.38 82.76 4.02C83.2 3.67 83.71 3.49 84.29 3.49C84.46 3.49 84.63 3.5 84.79 3.53C84.96 3.56 85.13 3.59 85.28 3.64L85.28 6.98C85.09 6.92 84.85 6.87 84.57 6.83C84.28 6.8 84.04 6.78 83.84 6.78C83.45 6.78 83.11 6.87 82.8 7.05C82.5 7.22 82.26 7.46 82.08 7.77C81.91 8.08 81.82 8.44 81.82 8.86L81.82 14.54L77.9 14.54Z" fill="#475467" fill-opacity="1.000000" fill-rule="evenodd"/>
	<path id="Vector" d="M64.45 3.18L64.45 0L77.09 0L77.09 3.18L72.71 3.18L72.71 14.54L68.82 14.54L68.82 3.18L64.45 3.18Z" fill="#475467" fill-opacity="1.000000" fill-rule="evenodd"/>
	<path id="Vector" d="M62.5 0L62.5 14.54L58.58 14.54L58.58 0L62.5 0Z" fill="#101828" fill-opacity="1.000000" fill-rule="nonzero"/>
	<path id="Vector" d="M51.24 14.74C50.08 14.74 49.07 14.52 48.23 14.07C47.39 13.62 46.75 12.98 46.29 12.14C45.84 11.3 45.62 10.29 45.62 9.11C45.62 7.99 45.84 7 46.3 6.16C46.75 5.32 47.39 4.66 48.22 4.19C49.05 3.72 50.03 3.49 51.16 3.49C51.98 3.49 52.73 3.62 53.39 3.87C54.06 4.13 54.63 4.5 55.11 4.99C55.58 5.47 55.94 6.06 56.2 6.75C56.45 7.44 56.58 8.22 56.58 9.09L56.58 10L46.84 10L46.84 7.84L52.97 7.84C52.97 7.52 52.89 7.25 52.73 7.01C52.58 6.77 52.38 6.58 52.12 6.45C51.86 6.31 51.57 6.25 51.24 6.25C50.92 6.25 50.63 6.31 50.37 6.45C50.1 6.58 49.89 6.77 49.73 7C49.57 7.24 49.49 7.52 49.48 7.84L49.48 10.17C49.48 10.52 49.55 10.83 49.7 11.1C49.85 11.38 50.06 11.59 50.33 11.75C50.61 11.91 50.94 11.98 51.33 11.98C51.6 11.98 51.84 11.95 52.07 11.87C52.29 11.79 52.49 11.69 52.65 11.54C52.81 11.4 52.93 11.22 53 11.02L56.58 11.02C56.46 11.78 56.17 12.43 55.71 12.99C55.25 13.55 54.64 13.98 53.88 14.28C53.13 14.59 52.25 14.74 51.24 14.74Z" fill="#101828" fill-opacity="1.000000" fill-rule="nonzero"/>
	<path id="Vector" d="M44.83 3.63L41.17 14.54L36.62 14.54L32.96 3.63L37.08 3.63L38.84 10.85L38.95 10.85L40.71 3.63L44.83 3.63Z" fill="#101828" fill-opacity="1.000000" fill-rule="nonzero"/>
	<path id="Vector" d="M25.05 14.71C24.36 14.71 23.74 14.6 23.2 14.37C22.67 14.14 22.26 13.79 21.95 13.32C21.65 12.85 21.5 12.25 21.5 11.53C21.5 10.93 21.6 10.42 21.81 10C22.01 9.58 22.29 9.23 22.66 8.96C23.02 8.69 23.45 8.48 23.93 8.34C24.42 8.2 24.94 8.11 25.51 8.06C26.12 8.02 26.61 7.96 26.98 7.89C27.35 7.82 27.62 7.72 27.79 7.6C27.95 7.47 28.03 7.31 28.03 7.1L28.03 7.07C28.03 6.78 27.93 6.57 27.71 6.42C27.49 6.26 27.21 6.19 26.87 6.19C26.5 6.19 26.19 6.27 25.95 6.44C25.72 6.6 25.58 6.85 25.53 7.18L21.93 7.18C21.97 6.52 22.18 5.91 22.56 5.35C22.94 4.79 23.49 4.34 24.21 4C24.94 3.66 25.84 3.49 26.93 3.49C27.71 3.49 28.41 3.58 29.03 3.77C29.65 3.95 30.18 4.2 30.61 4.53C31.05 4.85 31.38 5.23 31.61 5.66C31.84 6.09 31.95 6.56 31.95 7.07L31.95 14.54L28.29 14.54L28.29 13.01L28.2 13.01C27.99 13.41 27.72 13.74 27.41 13.99C27.1 14.24 26.75 14.43 26.35 14.54C25.96 14.65 25.52 14.71 25.05 14.71ZM26.33 12.24C26.63 12.24 26.91 12.18 27.17 12.05C27.43 11.93 27.65 11.75 27.81 11.52C27.98 11.29 28.06 11.01 28.06 10.68L28.06 9.77C27.96 9.81 27.85 9.85 27.73 9.89C27.62 9.93 27.49 9.96 27.36 10C27.23 10.03 27.09 10.06 26.95 10.09C26.81 10.12 26.66 10.14 26.5 10.17C26.2 10.21 25.95 10.29 25.75 10.4C25.56 10.5 25.42 10.63 25.33 10.79C25.24 10.94 25.19 11.11 25.19 11.3C25.19 11.6 25.3 11.84 25.51 12C25.73 12.16 26 12.24 26.33 12.24Z" fill="#101828" fill-opacity="1.000000" fill-rule="nonzero"/>
	<path id="Vector" d="M13.45 14.54L13.45 3.63L17.25 3.63L17.25 5.71L17.37 5.71C17.57 4.94 17.88 4.38 18.31 4.02C18.75 3.67 19.26 3.49 19.84 3.49C20.01 3.49 20.18 3.5 20.34 3.53C20.51 3.56 20.68 3.59 20.83 3.64L20.83 6.98C20.64 6.92 20.4 6.87 20.12 6.83C19.83 6.8 19.59 6.78 19.38 6.78C19 6.78 18.66 6.87 18.35 7.05C18.04 7.22 17.81 7.46 17.63 7.77C17.46 8.08 17.37 8.44 17.37 8.86L17.37 14.54L13.45 14.54Z" fill="#101828" fill-opacity="1.000000" fill-rule="nonzero"/>
	<path id="Vector" d="M0 3.18L0 0L12.64 0L12.64 3.18L8.26 3.18L8.26 14.54L4.37 14.54L4.37 3.18L0 3.18Z" fill="#101828" fill-opacity="1.000000" fill-rule="nonzero"/>
</svg>
