<svg xmlns="http://www.w3.org/2000/svg" aria-hidden="true" style="position:absolute;width:0;height:0;overflow:hidden">
  <defs>
    <symbol id="map" viewBox="0 0 32 32">
      <path d="M31.634.226A.991.991 0 0 1 32 1v28a.999.999 0 0 1-.804.98l-10 2a.995.995 0 0 1-.392 0L11 30.02l-9.804 1.96a.995.995 0 0 1-1.1-.552A1.003 1.003 0 0 1 0 31V3a.999.999 0 0 1 .804-.98l10-2a.995.995 0 0 1 .392 0L21 1.98 30.804.02a.996.996 0 0 1 .83.206zM20 3.82l-8-1.6v25.96l8 1.6V3.82zm2 25.96 8-1.6V2.22l-8 1.6v25.96zm-12-1.6V2.22l-8 1.6v25.96l8-1.6z"/>
    </symbol>
    <symbol id="people" viewBox="0 0 32 32">
      <path d="M30 28s2 0 2-2-2-8-10-8-10 6-10 8 2 2 2 2h16zm-15.956-2L14 25.992c.002-.528.334-2.06 1.52-3.44C16.624 21.258 18.564 20 22 20c3.434 0 5.374 1.26 6.48 2.552 1.186 1.38 1.516 2.914 1.52 3.44l-.016.004-.028.004H14.044zM22 14a4.003 4.003 0 0 0 4-4 4.001 4.001 0 0 0-6.828-2.828 4.001 4.001 0 0 0 0 5.656A4.001 4.001 0 0 0 22 14zm6-4a5.99 5.99 0 0 1-1.757 4.243A6.01 6.01 0 0 1 22 16.001a5.99 5.99 0 0 1-4.243-1.758A5.99 5.99 0 0 1 16 10a5.996 5.996 0 0 1 6-6 6.002 6.002 0 0 1 6 6zm-14.128 8.56c-.8-.25-1.625-.416-2.46-.494A13.873 13.873 0 0 0 10 18c-8 0-10 6-10 8 0 1.333.667 2 2 2h8.432A4.487 4.487 0 0 1 10 26c0-2.02.754-4.084 2.18-5.808a10.583 10.583 0 0 1 1.692-1.632zM9.84 20A11.003 11.003 0 0 0 8 26H2c0-.52.328-2.06 1.52-3.448 1.09-1.272 2.984-2.512 6.32-2.55V20zM3 11a5.996 5.996 0 0 1 6-6 5.996 5.996 0 0 1 6 6 5.996 5.996 0 0 1-6 6 5.996 5.996 0 0 1-6-6zm6-4a4.003 4.003 0 0 0-4 4 4.003 4.003 0 0 0 4 4 4.003 4.003 0 0 0 4-4 4.003 4.003 0 0 0-4-4z"/>
    </symbol>
    <symbol id="fuel" viewBox="0 0 32 32">
      <path d="M6 5a.997.997 0 0 1 1-1h10a.997.997 0 0 1 1 1v10a.997.997 0 0 1-1 1H7a.997.997 0 0 1-1-1V5z"/>
      <path d="M2 4a4.003 4.003 0 0 1 4-4h12a4.003 4.003 0 0 1 4 4v16a4.003 4.003 0 0 1 4 4v1a.997.997 0 0 0 1 1 .997.997 0 0 0 1-1v-9h-1a.997.997 0 0 1-1-1V8.75a.997.997 0 0 1 1-1h2.99c-.022-.952-.106-1.788-.402-2.444a1.944 1.944 0 0 0-.788-.916C28.432 4.17 27.872 4 27 4a.997.997 0 0 1-1-1 .997.997 0 0 1 1-1c1.128-.003 2.069.221 2.824.672.766.456 1.268 1.102 1.588 1.814.59 1.31.588 2.93.588 4.162v6.35c0 .132-.025.262-.076.383s-.124.232-.217.325a.991.991 0 0 1-.708.293h-1v9a3.004 3.004 0 0 1-3 3 2.998 2.998 0 0 1-3-3v-1a2 2 0 0 0-2-2v8h1a.997.997 0 0 1 1 1 .997.997 0 0 1-1 1h-22a.997.997 0 0 1-1-1 .997.997 0 0 1 1-1h1v-26zm18 0a2 2 0 0 0-2-2H6a2 2 0 0 0-2 2v26h16V4z"/>
    </symbol>
    <symbol id="radio" viewBox="0 0 32 32">
      <path d="M14.737 4.421a1.053 1.053 0 0 1 1.052-1.052h14.737a1.053 1.053 0 0 1 1.052 1.052v2.105a1.053 1.053 0 0 1-1.052 1.052H15.789a1.053 1.053 0 0 1-1.052-1.052V4.421zM0 24.421a6.313 6.313 0 0 1 6.316-6.316 6.313 6.313 0 0 1 6.316 6.316 6.313 6.313 0 0 1-6.316 6.316A6.315 6.315 0 0 1 0 24.421zm14.737-3.158a1.053 1.053 0 0 1 1.052-1.052h14.737a1.053 1.053 0 0 1 1.052 1.052v2.105a1.053 1.053 0 0 1-1.052 1.052H15.789a1.053 1.053 0 0 1-1.052-1.052v-2.105zm0-10.526a1.053 1.053 0 0 1 1.052-1.052h10.526a1.053 1.053 0 0 1 0 2.104H15.789a1.053 1.053 0 0 1-1.052-1.052zm0 16.842a1.053 1.053 0 0 1 1.052-1.052h10.526a1.053 1.053 0 0 1 0 2.104H15.789a1.053 1.053 0 0 1-1.052-1.052zM6.316 1.263a6.306 6.306 0 0 0-4.466 1.85 6.315 6.315 0 0 0 4.466 10.782 6.313 6.313 0 0 0 6.316-6.316 6.313 6.313 0 0 0-6.316-6.316zm0 9.474a3.158 3.158 0 1 1 0-6.316 3.158 3.158 0 0 1 0 6.316z"/>
    </symbol>
    <symbol id="rating" viewBox="0 0 32 32">
      <path d="M15.116 2.676a1 1 0 0 1 1.769 0l3.777 7.158c.145.274.408.466.714.519l7.975 1.38a1 1 0 0 1 .547 1.682l-5.641 5.804a1 1 0 0 0-.273.839l1.152 8.01a1 1 0 0 1-1.431 1.04l-7.263-3.571a.998.998 0 0 0-.882 0l-7.262 3.571a1 1 0 0 1-1.431-1.04l1.152-8.01a1 1 0 0 0-.273-.839l-5.64-5.804a1 1 0 0 1 .547-1.682l7.974-1.38a.998.998 0 0 0 .714-.519l3.776-7.158z"/>
    </symbol>
    <symbol id="heart" viewBox="0 0 32 32">
      <path d="m16 12.472-1.788-3.578c-.444-.886-1.214-2.16-2.304-3.19C10.836 4.69 9.552 4 8 4 4.648 4 2 6.652 2 9.84c0 2.422 1.108 4.132 3.736 6.74.674.668 1.442 1.39 2.292 2.186C10.244 20.846 13 23.434 16 26.894c3-3.46 5.756-6.048 7.972-8.128.85-.796 1.62-1.52 2.292-2.186C28.892 13.972 30 12.262 30 9.84 30 6.652 27.352 4 24 4c-1.554 0-2.836.69-3.908 1.704-1.09 1.03-1.86 2.304-2.304 3.19L16 12.472zm.784 16.584a1.022 1.022 0 0 1-1.216.269 1.04 1.04 0 0 1-.352-.269c-3.202-3.804-6.1-6.524-8.486-8.762C2.6 16.416 0 13.978 0 9.84 0 5.51 3.58 2 8 2c3.2 0 5.438 2.1 6.808 4.016.52.73.916 1.432 1.192 1.984.346-.691.745-1.354 1.192-1.984C18.562 4.098 20.8 2 24 2c4.42 0 8 3.51 8 7.84 0 4.138-2.6 6.576-6.73 10.454-2.386 2.24-5.284 4.962-8.486 8.762z"/>
    </symbol>
    <symbol id="bi_grid-3x3-gap" viewBox="0 0 32 32">
      <path d="M8 4v4H4V4h4zm2 24v-4a2 2 0 0 0-2-2H4a2 2 0 0 0-2 2v4a2 2 0 0 0 2 2h4a2 2 0 0 0 2-2zm0-10v-4a2 2 0 0 0-2-2H4a2 2 0 0 0-2 2v4a2 2 0 0 0 2 2h4a2 2 0 0 0 2-2zm0-10V4a2 2 0 0 0-2-2H4a2 2 0 0 0-2 2v4a2 2 0 0 0 2 2h4a2 2 0 0 0 2-2zm10 20v-4a2 2 0 0 0-2-2h-4a2 2 0 0 0-2 2v4a2 2 0 0 0 2 2h4a2 2 0 0 0 2-2zm0-10v-4a2 2 0 0 0-2-2h-4a2 2 0 0 0-2 2v4a2 2 0 0 0 2 2h4a2 2 0 0 0 2-2zm0-10V4a2 2 0 0 0-2-2h-4a2 2 0 0 0-2 2v4a2 2 0 0 0 2 2h4a2 2 0 0 0 2-2zm-2-4v4h-4V4h4zm10 0v4h-4V4h4zM8 14v4H4v-4h4zm10 0v4h-4v-4h4zm10 0h-4v4h4v-4zM8 24v4H4v-4h4zm10 0v4h-4v-4h4zm10 0v4h-4v-4h4zM24 2a2 2 0 0 0-2 2v4a2 2 0 0 0 2 2h4a2 2 0 0 0 2-2V4a2 2 0 0 0-2-2h-4zm-2 12a2 2 0 0 1 2-2h4a2 2 0 0 1 2 2v4a2 2 0 0 1-2 2h-4a2 2 0 0 1-2-2v-4zm2 8a2 2 0 0 0-2 2v4a2 2 0 0 0 2 2h4a2 2 0 0 0 2-2v-4a2 2 0 0 0-2-2h-4z"/>
    </symbol>
    <symbol id="bi_grid" viewBox="0 0 32 32">
      <path d="M2 5a3.004 3.004 0 0 1 3-3h6a3.004 3.004 0 0 1 3 3v6a3.004 3.004 0 0 1-3 3H5a3.004 3.004 0 0 1-3-3V5zm3-1a.997.997 0 0 0-1 1v6a.997.997 0 0 0 1 1h6a.997.997 0 0 0 1-1V5a.997.997 0 0 0-1-1H5zm13 1a3.004 3.004 0 0 1 3-3h6a3.004 3.004 0 0 1 3 3v6a3.004 3.004 0 0 1-3 3h-6a3.004 3.004 0 0 1-3-3V5zm3-1a.997.997 0 0 0-1 1v6a.997.997 0 0 0 1 1h6a.997.997 0 0 0 1-1V5a.997.997 0 0 0-1-1h-6zM2 21a3.004 3.004 0 0 1 3-3h6a3.004 3.004 0 0 1 3 3v6a3.004 3.004 0 0 1-3 3H5a3.004 3.004 0 0 1-3-3v-6zm3-1a.997.997 0 0 0-1 1v6a.997.997 0 0 0 1 1h6a.997.997 0 0 0 1-1v-6a.997.997 0 0 0-1-1H5zm13 1a3.004 3.004 0 0 1 3-3h6a3.004 3.004 0 0 1 3 3v6a3.004 3.004 0 0 1-3 3h-6a3.004 3.004 0 0 1-3-3v-6zm3-1a.997.997 0 0 0-1 1v6a.997.997 0 0 0 1 1h6a.997.997 0 0 0 1-1v-6a.997.997 0 0 0-1-1h-6z"/>
    </symbol>
    <symbol id="grid" viewBox="0 0 32 32">
      <path d="M12 2H2v28h10V2zm18 0H20v10h10V2zm0 18v10H20V20h10zM0 2a2 2 0 0 1 2-2h10a2 2 0 0 1 2 2v28a2 2 0 0 1-2 2H2a2 2 0 0 1-2-2V2zm18 0a2 2 0 0 1 2-2h10a2 2 0 0 1 2 2v10a2 2 0 0 1-2 2H20a2 2 0 0 1-2-2V2zm2 16a2 2 0 0 0-2 2v10a2 2 0 0 0 2 2h10a2 2 0 0 0 2-2V20a2 2 0 0 0-2-2H20z"/>
    </symbol>
    <symbol id="droplet" viewBox="0 0 24 32">
      <path d="M10.42 1.6C11.38.59 12 0 12 0c.219.725.466 1.417.742 2.076 1.624 3.892 4.146 6.7 6.394 9.2C21.756 14.192 24 16.69 24 20a12.003 12.003 0 0 1-12 12A11.998 11.998 0 0 1 0 20C0 13.336 7.16 5.034 10.42 1.6zm.826 2.042A62.033 62.033 0 0 0 7.588 7.98c-1.452 1.9-2.872 4.016-3.92 6.14C2.608 16.266 2 18.276 2 20a10.001 10.001 0 0 0 20 0c0-2.402-1.592-4.314-4.362-7.4l-.06-.064C15.5 10.22 13 7.442 11.246 3.642z"/>
      <path d="M5.106 15.552c1.64-3.282 3.434-5.506 4.186-6.26l1.416 1.416c-.58.58-2.256 2.622-3.814 5.74l-1.788-.896z"/>
    </symbol>
    <symbol id="cup" viewBox="0 0 32 32">
      <path d="M1 12a1.007 1.007 0 0 0-.779.374.997.997 0 0 0-.197.842l3.304 14.868A4.998 4.998 0 0 0 8.208 32h11.584a4.996 4.996 0 0 0 4.88-3.916l.262-1.18a6 6 0 0 0 2.601-11.708l.442-1.98A1.003 1.003 0 0 0 27.001 12h-26zm25 13a4.05 4.05 0 0 1-.632-.05l1.734-7.796A4.002 4.002 0 0 1 26 25zM5.28 27.65 2.246 14h23.508L22.72 27.65A2.995 2.995 0 0 1 19.792 30H8.208a2.998 2.998 0 0 1-2.928-2.35zM8.8 1.6l-.006.008-.028.038c-.146.2-.282.407-.408.62a4.003 4.003 0 0 0-.282.534c-.052.12-.068.184-.074.206v.008c.023.177.085.346.182.496.15.266.356.544.616.89l.02.024c.236.316.52.694.74 1.086.224.4.44.91.44 1.49 0 .376-.13.736-.238.988a6.142 6.142 0 0 1-.404.776 10.2 10.2 0 0 1-.506.764l-.036.05-.01.016-.004.004a1.004 1.004 0 0 1-1.4.202A1 1 0 0 1 7.2 8.4l.006-.008.028-.038c.146-.2.282-.407.408-.62.107-.171.202-.349.282-.534.052-.12.068-.184.074-.206a1.199 1.199 0 0 0-.18-.504A8.024 8.024 0 0 0 7.2 5.6l-.02-.024c-.27-.345-.517-.708-.74-1.086A3.066 3.066 0 0 1 6 3c0-.376.13-.736.238-.988.118-.276.268-.548.404-.776.159-.261.328-.516.506-.764l.05-.07A1.004 1.004 0 0 1 8.598.2 1.004 1.004 0 0 1 8.8 1.6zm6 0-.006.008-.028.038c-.146.2-.282.407-.408.62a4.003 4.003 0 0 0-.282.534c-.052.12-.068.184-.074.206v.008c.023.177.085.346.182.496.15.266.356.544.616.89l.02.024c.236.316.52.694.74 1.086.224.4.44.91.44 1.49 0 .376-.13.736-.238.988a6.142 6.142 0 0 1-.404.776 10.2 10.2 0 0 1-.506.764l-.036.05-.01.016-.004.004a1.004 1.004 0 0 1-1.4.202 1 1 0 0 1-.202-1.4l.006-.008.028-.038c.146-.2.282-.407.408-.62.107-.171.202-.349.282-.534.052-.12.068-.184.074-.206a1.199 1.199 0 0 0-.18-.504 8.024 8.024 0 0 0-.618-.89l-.02-.024c-.27-.345-.517-.708-.74-1.086A3.066 3.066 0 0 1 12 3c0-.376.13-.736.238-.988.118-.276.268-.548.404-.776.159-.261.328-.516.506-.764l.05-.07a1.004 1.004 0 0 1 1.4-.202 1 1 0 0 1 .202 1.4zm6 0-.006.008-.028.038c-.145.2-.282.407-.408.62a4.003 4.003 0 0 0-.282.534c-.052.12-.068.184-.074.206v.008c.023.177.085.346.182.496.15.266.356.544.616.89l.02.024c.236.316.52.694.74 1.086.224.4.44.91.44 1.49 0 .376-.13.736-.238.988a6.142 6.142 0 0 1-.404.776 9.875 9.875 0 0 1-.504.764l-.038.05-.01.016-.004.004a1.004 1.004 0 0 1-1.4.202 1 1 0 0 1-.202-1.4l.006-.008.028-.038c.145-.2.282-.407.408-.62.107-.171.202-.349.282-.534.052-.12.068-.184.074-.206a1.199 1.199 0 0 0-.18-.504 8.024 8.024 0 0 0-.618-.89l-.02-.024c-.27-.345-.517-.708-.74-1.086A3.066 3.066 0 0 1 18 3c0-.376.13-.736.238-.988.118-.276.268-.548.404-.776.159-.261.328-.516.506-.764l.05-.07a1.004 1.004 0 0 1 1.4-.202 1 1 0 0 1 .202 1.4z"/>
    </symbol>
    <symbol id="diagram" viewBox="0 0 32 32">
      <path d="M12 7a3.004 3.004 0 0 1 3-3h2a3.004 3.004 0 0 1 3 3v2a3.004 3.004 0 0 1-3 3v2h11a.997.997 0 0 1 1 1v2a.997.997 0 0 1-1 1 .997.997 0 0 1-1-1v-1H17v1a.997.997 0 0 1-1 1 .997.997 0 0 1-1-1v-1H5v1a.997.997 0 0 1-1 1 .997.997 0 0 1-1-1v-2a.997.997 0 0 1 1-1h11v-2a3.004 3.004 0 0 1-3-3V7zm5 3a.997.997 0 0 0 1-1V7a.997.997 0 0 0-1-1h-2a.997.997 0 0 0-1 1v2a.997.997 0 0 0 1 1h2zM0 23a3.004 3.004 0 0 1 3-3h2a3.004 3.004 0 0 1 3 3v2a3.004 3.004 0 0 1-3 3H3a3.004 3.004 0 0 1-3-3v-2zm3-1a.997.997 0 0 0-1 1v2a.997.997 0 0 0 1 1h2a.997.997 0 0 0 1-1v-2a.997.997 0 0 0-1-1H3zm9 1a3.004 3.004 0 0 1 3-3h2a3.004 3.004 0 0 1 3 3v2a3.004 3.004 0 0 1-3 3h-2a3.004 3.004 0 0 1-3-3v-2zm3-1a.997.997 0 0 0-1 1v2a.997.997 0 0 0 1 1h2a.997.997 0 0 0 1-1v-2a.997.997 0 0 0-1-1h-2zm9 1a3.004 3.004 0 0 1 3-3h2a3.004 3.004 0 0 1 3 3v2a3.004 3.004 0 0 1-3 3h-2a3.004 3.004 0 0 1-3-3v-2zm3-1a.997.997 0 0 0-1 1v2a.997.997 0 0 0 1 1h2a.997.997 0 0 0 1-1v-2a.997.997 0 0 0-1-1h-2z"/>
    </symbol>
    <symbol id="wind" viewBox="0 0 32 32">
      <path d="M25 4a5 5 0 0 0-5 5 .997.997 0 0 1-1 1 .997.997 0 0 1-1-1 6.994 6.994 0 0 1 4.322-6.467 6.998 6.998 0 0 1 9.544 5.102 7.006 7.006 0 0 1-2.976 7.186 6.994 6.994 0 0 1-3.889 1.18h-24a.997.997 0 0 1-1-1 .997.997 0 0 1 1-1h24a5 5 0 0 0 0-10zM11 6a2 2 0 0 0-2 2 .997.997 0 0 1-1 1 .997.997 0 0 1-1-1 4.004 4.004 0 0 1 2.469-3.695A4 4 0 1 1 11 12H1a.997.997 0 0 1-1-1 .997.997 0 0 1 1-1h10a2 2 0 0 0 0-4zM0 19a.997.997 0 0 1 1-1h20.084a5.998 5.998 0 0 1 4.242 10.243 5.996 5.996 0 0 1-6.539 1.301 5.999 5.999 0 0 1-3.704-5.543.997.997 0 0 1 1-1 .997.997 0 0 1 1 1 4.004 4.004 0 0 0 2.469 3.695 4 4 0 1 0 1.531-7.695H.999a.997.997 0 0 1-1-1z"/>
    </symbol>
    <symbol id="tv" viewBox="0 0 32 32">
      <path d="M0 7.5s0-4 4-4h24s4 0 4 4v12s0 4-4 4h-8c0 1.333.167 2.333.5 3H22a.997.997 0 0 1 1 1 .997.997 0 0 1-1 1H10a.997.997 0 0 1-1-1 .997.997 0 0 1 1-1h1.5c.333-.667.5-1.667.5-3H4s-4 0-4-4v-12zm2.796-1.71c-.22.153-.395.361-.508.604A3.013 3.013 0 0 0 2 7.52V19.5c0 .65.156 1.004.29 1.204.14.208.341.377.604.508.338.162.703.259 1.076.286l.05.002H28c.65 0 1.004-.156 1.204-.29.22-.153.395-.361.508-.604.162-.338.259-.703.286-1.076l.002-.05V7.5c0-.65-.156-1.004-.29-1.204a1.511 1.511 0 0 0-.604-.508A3.018 3.018 0 0 0 27.98 5.5H4c-.65 0-1.004.156-1.204.29z"/>
    </symbol>
  </defs>
</svg>
